<svg xmlns="http://www.w3.org/2000/svg" width="339.71" height="82.45" viewBox="0 0 339.71 82.45"><defs><style>.cls-1{fill:#6b6a6a;}.cls-2{fill:#e30427;}</style></defs><title>hw-logo</title><g id="Layer_2" data-name="Layer 2"><g id="Layer_1-2" data-name="Layer 1"><path class="cls-1" d="M5.6,73.66a3,3,0,0,1,.27-1.27,3,3,0,0,1,5.59,0A3.08,3.08,0,1,1,5.6,73.66m50.31-68A3.09,3.09,0,0,1,59,8.8a3,3,0,0,1-.27,1.27,3,3,0,0,1-5.59,0,3.18,3.18,0,0,1-.27-1.27,3.09,3.09,0,0,1,3.07-3.12M11.46,65.34V51.69L56.8,36.27a2.83,2.83,0,0,0,1.9-2.69V17.11a8.66,8.66,0,1,0-5.59,0V31.54L7.77,47a2.83,2.83,0,0,0-1.9,2.69V65.34A8.81,8.81,0,0,0,8.66,82.45a8.81,8.81,0,0,0,2.8-17.11"/><path class="cls-2" d="M11.73,8.79a3.19,3.19,0,0,1-.27,1.28,3,3,0,0,1-5.59,0A3,3,0,0,1,5.6,8.79a3.07,3.07,0,1,1,6.13,0m20.55,12.5a3.12,3.12,0,0,1,0,6.23,1.37,1.37,0,0,1-.29,0,3.1,3.1,0,0,1-2.77-3.09,3.19,3.19,0,0,1,1-2.3,3.09,3.09,0,0,1,2.07-.82M5.87,17.11V32.44A2.85,2.85,0,0,0,7,34.75a2.78,2.78,0,0,0,1.63.53,3,3,0,0,0,.89-.14l15.87-5.4a8.58,8.58,0,0,0,6.86,3.46,8.8,8.8,0,1,0-8.65-8.84L11.46,28.5V17.11a8.78,8.78,0,0,0,5.86-8.32A8.74,8.74,0,0,0,8.66,0,8.81,8.81,0,0,0,5.87,17.11"/><path class="cls-2" d="M52.84,73.66a3.1,3.1,0,0,1,.27-1.27,3,3,0,0,1,5.6,0,3.08,3.08,0,1,1-5.87,1.27M32.29,61.93a3.11,3.11,0,0,1,0-6.22h.29a3.1,3.1,0,0,1,2.77,3.1,3.15,3.15,0,0,1-1,2.3,3.06,3.06,0,0,1-2.07.81m26.42,3.41V50.79a2.86,2.86,0,0,0-1.17-2.31A2.77,2.77,0,0,0,55,48.09l-15.86,5.4A8.6,8.6,0,0,0,32.29,50,8.8,8.8,0,1,0,41,58.87l12.16-4.14V65.34a8.66,8.66,0,1,0,5.6,0"/><path class="cls-2" d="M105.85,28.44a2.72,2.72,0,0,0-1.9.65,2.05,2.05,0,0,0-.72,1.52v8.46h-10V30.61a2,2,0,0,0-.7-1.52,2.56,2.56,0,0,0-1.81-.65,2.75,2.75,0,0,0-1.87.64,2,2,0,0,0-.75,1.53V51.87a2,2,0,0,0,.75,1.53,2.71,2.71,0,0,0,1.87.65,2.56,2.56,0,0,0,1.81-.66,2,2,0,0,0,.7-1.52v-8h10v8a2.05,2.05,0,0,0,.72,1.52,2.68,2.68,0,0,0,1.9.66,2.52,2.52,0,0,0,1.79-.66,2.05,2.05,0,0,0,.72-1.52V30.61a2.05,2.05,0,0,0-.72-1.52,2.56,2.56,0,0,0-1.79-.65"/><path class="cls-2" d="M162.23,36.43v.72A2.26,2.26,0,0,1,161.3,39a5.57,5.57,0,0,1-3.37.78h-4.32V33.38h4.32a5.28,5.28,0,0,1,3.36.83,2.71,2.71,0,0,1,.94,2.22m1.36,6a6.06,6.06,0,0,0,2.84-2.19,6.45,6.45,0,0,0,.93-3.51v-.26a9.09,9.09,0,0,0-.51-3.13,6,6,0,0,0-1.64-2.45,7.42,7.42,0,0,0-2.94-1.57,15.3,15.3,0,0,0-4.34-.54H151.1a2.71,2.71,0,0,0-1.87.64,2,2,0,0,0-.75,1.52V51.76a2.19,2.19,0,0,0,.74,1.57,2.58,2.58,0,0,0,1.88.71,2.63,2.63,0,0,0,1.8-.6,2,2,0,0,0,.71-1.49V44.24H159l4,8.79a2.1,2.1,0,0,0,1.35.95,2.21,2.21,0,0,0,.62.09,2.79,2.79,0,0,0,1.28-.34,3.06,3.06,0,0,0,1.31-1.49,1.66,1.66,0,0,0-.14-1.66Z"/><path class="cls-2" d="M191.07,39V44a4.79,4.79,0,0,1-1.31,3.65A5.27,5.27,0,0,1,186,48.88h-3.88V33.61H186A4.8,4.8,0,0,1,189.74,35a5.69,5.69,0,0,1,1.33,4m2.68-7.09a9.11,9.11,0,0,0-3.2-2.29,11.43,11.43,0,0,0-4.52-.83h-6.39a2.65,2.65,0,0,0-1.89.65A2,2,0,0,0,177,31V51.5a2,2,0,0,0,.73,1.52,2.69,2.69,0,0,0,1.89.65H186a12.12,12.12,0,0,0,4.51-.78,8.46,8.46,0,0,0,5.06-5.4,12.48,12.48,0,0,0,.6-3.92V39.4a13.6,13.6,0,0,0-.6-4.08,9.11,9.11,0,0,0-1.85-3.38"/><path class="cls-2" d="M258.48,43.88h-5.64l2.8-8.17Zm.67-13.64s-.66-1.76-3.51-1.76-3.52,1.81-3.52,1.81l-7.26,20.83a2,2,0,0,0,.29,1.66,2.66,2.66,0,0,0,1.66,1.14,3.28,3.28,0,0,0,.74.1,2.5,2.5,0,0,0,1.15-.28,2.25,2.25,0,0,0,1.15-1.25l1.43-4.12h8.77l1.41,4.07a2.07,2.07,0,0,0,1.11,1.26,2.68,2.68,0,0,0,1.93.18,2.58,2.58,0,0,0,1.65-1.14,2.06,2.06,0,0,0,.25-1.67Z"/><path class="cls-2" d="M289.43,36.43v.72a2.27,2.27,0,0,1-.94,1.89,5.51,5.51,0,0,1-3.36.78h-4.32V33.38h4.32a5.26,5.26,0,0,1,3.35.83,2.72,2.72,0,0,1,.95,2.22m1.35,6a6,6,0,0,0,2.84-2.19,6.46,6.46,0,0,0,.94-3.51v-.26a9.13,9.13,0,0,0-.51-3.13,6,6,0,0,0-1.64-2.45,7.47,7.47,0,0,0-3-1.57,29.41,29.41,0,0,0-5.94-.54H278.3a2.71,2.71,0,0,0-1.87.64,2,2,0,0,0-.75,1.52V51.76a2.21,2.21,0,0,0,.73,1.57,2.93,2.93,0,0,0,3.69.11,2,2,0,0,0,.71-1.49V44.24h5.41l4,8.79a2.08,2.08,0,0,0,1.35.95,2.16,2.16,0,0,0,.62.09,2.79,2.79,0,0,0,1.28-.34,3.06,3.06,0,0,0,1.31-1.49,1.69,1.69,0,0,0-.14-1.66Z"/><path class="cls-2" d="M306.83,28.44a2.72,2.72,0,0,0-1.9.65,2,2,0,0,0-.72,1.52V51.84a2,2,0,0,0,.72,1.52,2.72,2.72,0,0,0,1.9.65,2.59,2.59,0,0,0,1.79-.65,2,2,0,0,0,.72-1.52V30.61a2,2,0,0,0-.72-1.52,2.58,2.58,0,0,0-1.79-.65"/><path class="cls-2" d="M329.1,49.18c-1.44,0-3.4-.4-4.23-1.19s-1.25-2.15-1.25-4.08v-5.3c0-1.92.42-3.3,1.25-4.08s2.79-1.19,4.23-1.19,3.47.4,4.27,1.19,1.21,2.15,1.21,4.08v5.3c0,1.93-.41,3.3-1.21,4.08s-2.78,1.19-4.27,1.19m10-14.54a8.76,8.76,0,0,0-1.8-3.25,8.62,8.62,0,0,0-3.07-2.17,17.33,17.33,0,0,0-10.28,0,8.54,8.54,0,0,0-3.05,2.17,8.86,8.86,0,0,0-1.78,3.25,13.37,13.37,0,0,0-.58,4v5.26a13.32,13.32,0,0,0,.58,4,8.78,8.78,0,0,0,1.78,3.25A8.31,8.31,0,0,0,324,53.26a17.33,17.33,0,0,0,10.28,0,8.38,8.38,0,0,0,3.07-2.17,8.68,8.68,0,0,0,1.8-3.25,13.32,13.32,0,0,0,.58-4V38.61a13.37,13.37,0,0,0-.58-4"/><path class="cls-2" d="M238.17,29.87a2.55,2.55,0,0,0-1.44-1.33,2.53,2.53,0,0,0-3.23,1.59L228.8,43.7l-4.66-13.59a2.63,2.63,0,0,0-2.42-1.71,2.51,2.51,0,0,0-2.38,1.72l-4.7,13.59L210,30.12a2.59,2.59,0,0,0-1.31-1.47,2.4,2.4,0,0,0-1.93-.1,2.6,2.6,0,0,0-1.54,3.28l7.07,20.46a2.54,2.54,0,0,0,2.39,1.76,2.57,2.57,0,0,0,2.4-1.74l4.69-13.58,4.69,13.55a2.51,2.51,0,0,0,4.77,0l7.09-20.5a2.52,2.52,0,0,0-.1-2"/><path class="cls-2" d="M131.28,43.86h-5.64l2.8-8.17ZM132,30.22s-.66-1.76-3.51-1.76-3.51,1.81-3.51,1.81L117.67,51.1a2,2,0,0,0,.28,1.66,2.69,2.69,0,0,0,1.67,1.14,3.21,3.21,0,0,0,.74.1,2.49,2.49,0,0,0,1.14-.28,2.24,2.24,0,0,0,1.15-1.26l1.43-4.11h8.77l1.42,4.07a2,2,0,0,0,1.1,1.26,2.69,2.69,0,0,0,1.93.18A2.58,2.58,0,0,0,139,52.72a2.08,2.08,0,0,0,.26-1.68Z"/></g></g></svg>